Coordinates
version=1
nRows=17
nColumns=24
inDegrees=yes

Units are S.I. units (second, meters, Newtons, ...)
Angles are in degrees.

endheader
time	pelvis_tilt	pelvis_list	pelvis_rotation	pelvis_tx	pelvis_ty	pelvis_tz	hip_flexion_r	hip_adduction_r	hip_rotation_r	knee_angle_r	ankle_angle_r	subtalar_angle_r	mtp_angle_r	hip_flexion_l	hip_adduction_l	hip_rotation_l	knee_angle_l	ankle_angle_l	subtalar_angle_l	mtp_angle_l	lumbar_extension	lumbar_bending	lumbar_rotation
      0.68300000	      2.20488405	      3.46993909	     10.79654169	      0.06782470	      0.99048632	      0.22521725	     28.35669708	     -5.72164137	     -4.17469967	     -5.68378961	     10.30331152	     -6.29300971	      6.00157046	    -18.04234709	      4.12085810	     12.98196590	    -17.77653923	     18.55882671	     -4.24011276	     -2.49322694	     -5.12732497	     -5.65668577	     -8.55213804
      0.68716667	      2.23201688	      3.35606541	     10.99675572	      0.07406652	      0.98989596	      0.22552680	     28.35119544	     -5.62305935	     -4.04289553	     -6.35507125	     10.27273575	     -6.69698257	      6.02232359	    -18.22078802	      3.84867223	     12.99157855	    -18.13565366	     18.37849380	     -4.11694828	     -2.47832179	     -5.04029564	     -5.52120140	     -8.68831594
      0.69133333	      2.25703503	      3.21694748	     11.19576646	      0.08036351	      0.98931648	      0.22589266	     28.32973479	     -5.48567676	     -3.90816082	     -6.98649731	     10.09269033	     -7.21221387	      6.06574444	    -18.38420118	      3.54358892	     12.97380609	    -18.50876011	     18.20091217	     -3.96581174	     -2.42051974	     -4.98786644	     -5.38684667	     -8.85864041
      0.69550000	      2.28625619	      3.08285631	     11.39381696	      0.08671778	      0.98876568	      0.22625543	     28.29552746	     -5.35035249	     -3.82675803	     -7.61105861	      9.90636452	     -7.65370210	      6.11707082	    -18.54968088	      3.24068802	     12.94640645	    -18.88394597	     17.96296061	     -3.83525873	     -2.34540401	     -4.88770605	     -5.23812934	     -8.97650215
      0.69966667	      2.31085262	      2.93068628	     11.58087155	      0.09312122	      0.98821609	      0.22669134	     28.25557558	     -5.17939385	     -3.72785321	     -8.20207522	      9.59671211	     -8.18173901	      6.19923071	    -18.70379736	      2.91544739	     12.89575840	    -19.26093333	     17.73437868	     -3.67942226	     -2.21579845	     -4.81655503	     -5.09746436	     -9.12271631
      0.70383333	      2.35008933	      2.78522822	     11.76569436	      0.09954347	      0.98769921	      0.22714729	     28.18730745	     -5.00339127	     -3.62934728	     -8.76245018	      9.21909832	     -8.76706277	      6.34505262	    -18.85509997	      2.59037191	     12.80533734	    -19.67283502	     17.50399985	     -3.51397255	     -1.98439380	     -4.74299202	     -4.95410086	     -9.25809250
      0.70800000	      2.36664442	      2.62963022	     11.95242794	      0.10604954	      0.98718756	      0.22759233	     28.16375566	     -4.83322783	     -3.70401796	     -9.37406187	      8.94739786	     -9.01148890	      6.38483163	    -18.99118163	      2.26078698	     12.75332404	    -20.05420755	     17.11942369	     -3.43554417	     -1.92219270	     -4.63192133	     -4.82653429	     -9.29370599
      0.71216667	      2.41024773	      2.44536979	     12.11060119	      0.11260155	      0.98670538	      0.22814626	     28.06206942	     -4.58080445	     -3.55335884	     -9.83843882	      8.28915568	     -9.83615970	      6.58953554	    -19.13586596	      1.88943243	     12.59658195	    -20.46508951	     16.87276073	     -3.20132414	     -1.58216618	     -4.53493443	     -4.62352079	     -9.47847024
      0.71633333	      2.44346841	      2.25584263	     12.27412899	      0.11919294	      0.98623711	      0.22870755	     27.98299176	     -4.33141428	     -3.51806735	    -10.32264002	      7.67380252	    -10.45267111	      6.90857124	    -19.25649757	      1.50917079	     12.42659984	    -20.88623427	     16.51118788	     -2.99332751	     -1.06534576	     -4.42087618	     -4.44781287	     -9.56940122
      0.72050000	      2.47966567	      2.05178291	     12.41720888	      0.12584363	      0.98577391	      0.22928583	     27.92615104	     -4.06776407	     -3.58878422	    -10.84401660	      7.05456415	    -10.85155243	      9.30169395	    -19.37369722	      1.11154706	     12.19504032	    -21.29906727	     16.04093481	     -2.74814212	      2.79059655	     -4.27907962	     -4.23430145	     -9.53432373
      0.72466667	      2.49780637	      1.85986040	     12.56013878	      0.13250337	      0.98533581	      0.22987816	     27.87178370	     -3.80640854	     -3.60250093	    -11.32211541	      6.33119655	    -11.39468955	      9.32688322	    -19.47354461	      0.74889770	     12.07146717	    -21.72067145	     15.56449668	     -2.74478488	      2.87618281	     -4.13366364	     -4.05712500	     -9.70507895
      0.72883333	      2.52998028	      1.64213035	     12.68582172	      0.13920286	      0.98491233	      0.23052445	     27.81096173	     -3.50255759	     -3.61667687	    -11.79747002	      5.57094760	    -11.94810861	      9.39484343	    -19.56022178	      0.34671072	     11.83458259	    -22.17846564	     15.10530459	     -2.57295892	      3.04050566	     -3.99337789	     -3.84362741	     -9.76016276
      0.73300000	      2.56414113	      1.41369586	     12.79870355	      0.14592346	      0.98451167	      0.23121623	     27.75507041	     -3.17710604	     -3.63384869	    -12.27070564	      4.77449005	    -12.48917604	      9.50068646	    -19.63046966	     -0.06728488	     11.56244572	    -22.65873184	     14.60673225	     -2.39518571	      3.27786469	     -3.84843781	     -3.62767081	     -9.80150904
      0.73716667	      2.60030857	      1.17934078	     12.89374434	      0.15266570	      0.98412584	      0.23194013	     27.70986143	     -2.83560059	     -3.64928714	    -12.75739204	      3.95326475	    -13.02121213	      9.64697774	    -19.68598340	     -0.48412933	     11.25336789	    -23.16324304	     14.06241224	     -2.21433797	      3.60070220	     -3.69700396	     -3.40283037	     -9.82881367
      0.74133333	      2.64830847	      0.95529364	     12.96504406	      0.15941152	      0.98378321	      0.23273126	     27.66289944	     -2.48324103	     -3.61953528	    -13.25911112	      3.08202980	    -13.59156348	      9.90169245	    -19.74543949	     -0.89070505	     10.91050512	    -23.67254005	     13.45447431	     -1.97559997	      4.16252165	     -3.56943971	     -3.19507783	     -9.83918690
      0.74550000	      2.69222500	      0.68639115	     13.03987432	      0.16618861	      0.98344064	      0.23351354	     27.63079730	     -2.09149447	     -3.64304656	    -13.76816088	      2.26478785	    -14.09092347	     10.18064608	    -19.75648752	     -1.34581369	     10.51147601	    -24.24918549	     12.84232903	     -1.83663114	      4.80741891	     -3.41190688	     -2.94885525	     -9.83307998
      0.74966667	      2.76777412	      0.42600840	     13.08745192	      0.17296357	      0.98315711	      0.23430380	     27.60256049	     -1.70345973	     -3.71829338	    -14.35885630	      1.55854029	    -14.34475564	     12.26505319	    -19.79899893	     -1.79171813	     10.09096986	    -24.80781884	     12.02941885	     -1.67936649	      9.82390628	     -3.31539943	     -2.65221433	     -9.79719815
